<?xml version="1.0" standalone="no"?>
<!DOCTYPE svg PUBLIC "-//W3C//DTD SVG 20010904//EN"
 "http://www.w3.org/TR/2001/REC-SVG-20010904/DTD/svg10.dtd">
<svg version="1.0" xmlns="http://www.w3.org/2000/svg"
 width="260.000000pt" height="260.000000pt" viewBox="0 0 260.000000 260.000000"
 preserveAspectRatio="xMidYMid meet">
<metadata>
Created by potrace 1.14, written by Peter Selinger 2001-2017
</metadata>
<g transform="translate(0.000000,260.000000) scale(0.100000,-0.100000)"
fill="#000000" stroke="none">
<path d="M1144 2578 c-21 -22 -124 -185 -124 -194 0 -3 -9 -17 -19 -32 -16
-23 -196 -322 -251 -417 -9 -16 -94 -158 -187 -315 -94 -157 -180 -305 -192
-328 -46 -90 -36 -221 23 -312 13 -19 58 -89 101 -155 263 -406 550 -708 769
-809 37 -17 40 -17 79 0 196 88 507 423 756 814 41 63 85 132 99 153 54 81 66
198 29 287 -13 30 -144 258 -292 505 -149 248 -275 459 -281 470 -34 63 -188
313 -202 328 -8 9 -19 17 -24 17 -4 0 -8 -266 -8 -591 l0 -590 121 -122 c66
-67 126 -133 134 -147 13 -25 11 -60 -3 -87 -10 -16 -248 -259 -299 -304 -38
-33 -103 -40 -138 -15 -40 28 -307 302 -319 326 -6 14 -11 32 -10 40 1 8 2 22
3 31 0 9 60 75 131 147 l130 131 -2 596 -3 597 -21 -24z"/>
</g>
</svg>
